<svg version="1.1" id="Layer_1" xmlns="http://www.w3.org/2000/svg" xmlns:xlink="http://www.w3.org/1999/xlink" x="0px" y="0px"
	 width="100%" viewBox="0 0 1024 736" enable-background="new 0 0 1024 736" xml:space="preserve">
<path fill="#000000" opacity="1.000000" stroke="none" 
	d="
M802.870911,355.872192 
	C778.693359,378.702820 752.810364,398.844086 725.649414,417.340057 
	C683.367493,446.133057 638.367737,469.950775 591.205811,489.666992 
	C533.703613,513.705994 474.435822,531.964478 413.012177,542.867126 
	C376.176331,549.405518 339.011810,552.734802 301.614532,550.974243 
	C272.365570,549.597290 243.537064,545.304016 217.198517,531.163757 
	C198.829803,521.302185 184.411850,507.759369 178.113068,487.153748 
	C173.592484,472.365295 175.648315,457.773834 180.157272,443.416473 
	C186.691055,422.611694 198.407623,404.616119 211.298294,387.321808 
	C215.679840,381.443481 220.030502,375.585785 223.848389,369.294708 
	C230.813110,357.818329 239.895676,348.601318 252.602417,343.264893 
	C257.407684,341.246826 260.554535,336.751343 264.398010,333.322723 
	C291.760315,308.913696 322.231842,288.904785 353.647919,270.243561 
	C417.906891,232.073502 486.263489,203.621063 558.274902,183.734344 
	C591.384705,174.590729 624.877258,167.305984 658.969543,163.324036 
	C699.461365,158.594589 740.024536,157.314560 780.294373,165.726120 
	C801.193848,170.091629 821.147217,177.132874 838.352600,190.126205 
	C859.871826,206.377213 867.888550,228.635635 864.268616,254.876526 
	C860.533020,281.955658 847.030884,304.629242 830.230835,325.589874 
	C821.778931,336.134979 812.800293,346.191528 802.870911,355.872192 
M611.448792,275.668884 
	C614.577454,270.169495 617.879272,264.759308 620.775208,259.139954 
	C622.776917,255.255661 625.696350,253.083328 629.867432,252.093475 
	C666.461060,243.409409 703.042480,234.674088 739.623169,225.935547 
	C748.441589,223.828949 753.090454,226.286270 756.194946,234.917633 
	C758.368652,240.960938 760.433228,247.043472 762.902283,254.129120 
	C771.858276,240.876648 777.904785,227.210678 786.554749,214.763153 
	C784.358826,213.486847 782.551514,212.315414 780.641602,211.345947 
	C768.377441,205.120605 755.404419,200.876892 741.934082,198.337494 
	C699.503723,190.338638 656.989502,192.614319 614.673950,198.797440 
	C576.884705,204.319183 540.049927,214.196060 503.851532,226.394547 
	C430.755127,251.027344 363.561462,286.704834 302.498779,333.872406 
	C301.384949,334.732758 299.756989,335.286041 300.069122,337.427155 
	C302.384705,338.182373 304.782806,338.852081 307.096893,339.740662 
	C313.684265,342.270142 313.996765,344.258911 318.165192,335.236115 
	C320.741089,329.660339 324.599548,326.374298 330.885529,325.362793 
	C338.100555,324.201874 345.111816,321.703278 352.338562,320.704956 
	C360.442230,319.585480 368.104401,317.865875 375.929260,315.040710 
	C388.851593,310.375153 402.667328,308.239380 416.127991,305.204254 
	C452.526306,296.997192 483.187653,320.419739 482.413788,357.916321 
	C482.360535,360.496582 481.679749,363.195526 482.879822,365.701447 
	C492.487274,365.429749 492.760101,365.163696 492.774750,356.397491 
	C492.793091,345.401703 492.874939,334.405640 492.816986,323.410278 
	C492.799713,320.129883 493.606934,317.226044 495.280884,314.411377 
	C500.644043,305.393433 505.912506,296.318848 511.176270,287.242188 
	C513.894043,282.555817 517.544189,279.448975 523.086426,278.250763 
	C536.256897,275.403351 549.293152,271.929382 562.475403,269.143097 
	C578.175720,265.824615 593.284729,267.310089 607.127991,276.199890 
	C608.494812,277.077606 609.733704,277.797180 611.448792,275.668884 
M347.610229,473.535492 
	C336.005280,476.507782 324.408569,479.512878 312.792633,482.441589 
	C303.997070,484.659241 302.410950,483.962677 297.689667,475.880157 
	C286.828094,487.625854 273.518982,494.948059 257.570496,497.753204 
	C258.151489,498.711426 258.300781,499.257538 258.655304,499.488159 
	C259.907318,500.302704 261.187897,501.095886 262.531799,501.743256 
	C275.833740,508.151367 289.864319,512.357544 304.377716,514.748352 
	C340.061035,520.626404 375.890656,518.969849 411.421753,514.302979 
	C455.738556,508.482086 499.055206,497.756104 541.424438,483.322083 
	C604.578308,461.807251 663.989685,432.970001 718.116516,393.692474 
	C722.234863,390.703949 726.242615,387.562988 730.299133,384.494904 
	C719.840515,379.715057 722.343384,368.382141 716.974243,360.556732 
	C711.999634,367.120361 707.629578,373.598938 704.465210,380.658478 
	C701.174561,387.999603 696.306091,391.446167 688.223816,393.156616 
	C662.336975,398.634979 636.690979,405.245697 610.925964,411.308716 
	C604.118164,412.910706 599.976501,409.529236 599.759827,402.532440 
	C599.665344,399.480042 599.743958,396.422241 599.743958,393.015228 
	C598.669739,393.556244 598.305603,393.636383 598.101257,393.861511 
	C597.433655,394.597076 596.789551,395.359711 596.197815,396.157410 
	C585.557678,410.500732 571.421936,419.775543 554.277771,424.267792 
	C536.886414,428.824799 519.365540,432.888489 501.894806,437.141052 
	C499.958099,437.612488 497.770935,438.374115 496.048950,437.172577 
	C492.939484,435.002899 490.944550,436.567780 488.731110,438.567078 
	C481.136475,445.426880 472.394989,447.845490 462.353149,445.272949 
	C455.844940,443.605621 451.446533,439.283630 447.779846,433.149963 
	C439.652740,443.698822 429.644379,450.633118 418.205597,455.651031 
	C408.990356,459.693573 399.238647,461.900146 389.490662,464.046875 
	C375.743500,467.074249 362.394592,471.917389 347.610229,473.535492 
M522.049927,311.497833 
	C521.006714,338.143707 521.061340,364.802765 521.123291,391.461182 
	C521.136108,396.976105 521.580017,397.203186 526.922974,395.918274 
	C539.859558,392.807190 552.792175,389.677338 565.755493,386.680725 
	C598.493896,379.113007 621.591003,350.253448 618.865234,316.134186 
	C616.850464,290.914917 596.428650,277.238281 575.440674,278.669830 
	C561.451233,279.624023 547.934448,283.691223 534.584961,287.830933 
	C522.516174,291.573547 522.329407,292.327484 522.156311,305.002716 
	C522.131287,306.835632 522.098755,308.668457 522.049927,311.497833 
M393.673157,428.084686 
	C400.928436,426.250549 408.117767,424.081329 415.450043,422.638641 
	C452.575500,415.333862 472.979553,386.815369 471.700775,354.410858 
	C470.800781,331.605103 454.437683,314.900360 431.985809,314.904266 
	C413.275055,314.907501 396.193726,321.928375 378.373108,325.748535 
	C375.137573,326.442108 375.188782,329.101440 375.182495,331.687775 
	C375.143341,347.843567 375.134308,363.999786 374.996948,380.154846 
	C374.863922,395.805176 374.651672,411.455597 374.333496,427.103119 
	C374.248840,431.264923 375.836121,432.466064 379.778229,431.401611 
	C384.108032,430.232483 388.513702,429.344177 393.673157,428.084686 
M684.837708,250.398346 
	C669.170959,254.949783 652.975220,257.362213 637.368591,262.191986 
	C633.341125,263.438354 631.201782,265.422119 630.995422,269.839722 
	C629.486389,302.143097 630.587097,334.466278 630.100342,366.775604 
	C630.047546,370.278992 631.674500,371.181519 634.797180,370.425812 
	C639.324951,369.330078 643.870483,368.306885 648.392639,367.188843 
	C667.932434,362.358063 687.455322,357.458313 707.014587,352.707977 
	C709.935425,351.998596 710.692932,350.242889 710.691956,347.661469 
	C710.690308,342.996643 710.752808,338.331177 710.693237,333.667175 
	C710.609619,327.112793 709.702515,326.364624 703.243469,327.809143 
	C690.578552,330.641571 677.903809,333.441711 665.300293,336.529449 
	C660.973999,337.589294 659.327759,336.404236 659.713257,332.042328 
	C659.844666,330.554871 659.877991,329.026001 659.691589,327.549438 
	C659.147888,323.240082 661.557617,321.709656 665.287109,320.854614 
	C676.961792,318.177917 688.585449,315.279724 700.252808,312.570068 
	C703.040344,311.922638 704.097961,310.326538 704.047302,307.610321 
	C703.969604,303.446594 704.024231,299.280548 703.969849,295.116180 
	C703.873779,287.756165 703.116089,287.144135 695.678406,288.786530 
	C685.440918,291.047241 675.224792,293.404114 664.997986,295.713379 
	C663.556763,296.038788 661.675354,296.872986 660.812256,295.425262 
	C658.925049,292.259460 659.879517,288.611115 659.964783,285.169373 
	C660.026733,282.667267 662.129150,282.099243 664.186523,281.714325 
	C677.929871,279.143005 691.125793,274.197235 704.996765,272.225311 
	C708.806641,271.683685 709.994568,269.813995 709.817383,266.191711 
	C709.589600,261.537079 709.770813,256.863861 709.699036,252.199814 
	C709.612549,246.589401 708.356689,245.382248 702.689819,246.396194 
	C696.961975,247.421051 691.323914,248.948181 684.837708,250.398346 
M275.158325,347.452850 
	C269.458282,348.686859 263.934753,350.046021 259.312805,354.158051 
	C255.426483,357.615570 249.595734,357.846405 245.492477,360.784393 
	C238.910187,365.497406 234.086548,372.164703 231.767456,379.876495 
	C227.104996,395.380890 230.734253,410.525757 249.499878,415.466766 
	C257.625519,417.606262 265.973633,417.617676 274.293640,417.767029 
	C277.496216,417.824493 280.649261,418.069031 283.417053,419.853424 
	C287.730621,422.634399 287.787231,427.130432 283.536255,429.932007 
	C280.702820,431.799316 277.436981,432.514130 274.158600,433.175446 
	C262.798889,435.466888 251.973099,434.475098 241.964355,428.127869 
	C240.070282,426.926697 238.039124,425.810425 236.479568,428.613007 
	C233.081985,434.718567 229.721176,440.844635 226.343689,446.961395 
	C224.942017,449.499908 225.769485,451.230225 228.080902,452.795837 
	C233.957657,456.776337 240.218384,459.950378 247.330353,460.559113 
	C261.952972,461.810669 276.206696,460.253387 289.841980,454.297211 
	C304.376740,447.948151 314.336121,437.757629 317.218018,421.802490 
	C319.925140,406.814911 312.860870,396.073608 298.224121,391.925629 
	C291.724060,390.083527 285.074158,390.053986 278.416473,389.903137 
	C274.254333,389.808838 270.063812,389.712128 266.135284,388.118958 
	C263.497009,387.049042 260.524933,385.846222 260.422424,382.528046 
	C260.320404,379.225494 262.668335,377.079590 265.474274,375.668549 
	C266.944489,374.929169 268.561584,374.430878 270.160980,374.007507 
	C280.050049,371.389862 289.331818,373.640015 298.212830,377.936737 
	C301.332520,379.446045 303.033966,378.952393 304.514771,375.888123 
	C307.118835,370.499115 309.599091,364.997162 312.794220,359.963348 
	C315.465149,355.755402 314.180450,354.221191 310.221069,352.182007 
	C299.309235,346.562225 287.719360,346.925385 275.158325,347.452850 
M789.062683,320.654816 
	C800.258728,286.189941 813.776978,252.501709 824.959900,216.871506 
	C814.056458,219.205994 804.598267,220.954590 795.386169,223.862930 
	C793.133850,224.573990 792.290222,226.084656 791.650024,228.079636 
	C785.802673,246.299606 779.897034,264.500916 774.062561,282.725006 
	C772.285156,288.276764 770.675598,293.882263 768.961731,299.553925 
	C766.220093,298.425568 766.223022,296.193787 765.589233,294.395782 
	C759.391418,276.814392 753.252075,259.212341 747.034912,241.637833 
	C746.199219,239.275696 745.283691,236.956650 741.803406,237.544418 
	C734.406006,238.793701 727.071533,240.253036 719.878296,242.415924 
	C715.758179,243.654785 714.801819,245.961899 716.418213,249.973450 
	C719.279419,257.074921 721.754028,264.331024 724.489502,271.484528 
	C733.112488,294.034515 741.798584,316.560394 750.409241,339.115082 
	C751.403137,341.718384 752.829712,342.819519 755.714844,342.037201 
	C760.368591,340.775208 765.066772,339.652588 769.786133,338.661316 
	C784.069275,335.661041 784.076660,335.696625 788.584839,321.852966 
	C788.636353,321.694763 788.704346,321.541962 789.062683,320.654816 
M332.311066,442.526886 
	C339.095917,440.852631 345.836670,438.959778 352.680969,437.580414 
	C357.307587,436.648010 358.827332,434.350128 358.814575,429.669952 
	C358.730652,398.844818 358.918549,368.019012 358.957275,337.193359 
	C358.959869,335.123566 359.439667,332.858398 357.734100,330.892273 
	C357.115417,330.892273 356.439362,330.775116 355.818573,330.910828 
	C350.941895,331.976990 346.087799,333.148315 341.203827,334.178558 
	C332.528564,336.008606 329.379120,339.577209 329.251312,348.471832 
	C329.045471,362.799561 329.036591,377.130035 328.906494,391.458984 
	C328.764313,407.113617 328.556671,422.767639 328.438995,438.422394 
	C328.423492,440.482574 327.966736,443.146912 332.311066,442.526886 
M506.169556,380.572174 
	C504.030426,376.736420 500.499054,375.024414 496.374908,374.583130 
	C485.933685,373.465973 474.516083,384.789459 475.407684,395.238007 
	C475.947052,401.558716 479.578064,406.080383 485.479370,407.252686 
	C492.531921,408.653717 498.288696,405.829102 502.731842,400.648682 
	C507.549408,395.031799 509.450134,388.531067 506.169556,380.572174 
z"/>
<path fill="#000000" opacity="1.000000" stroke="none" 
	d="
M208.500183,600.203613 
	C208.119263,601.526306 207.911133,602.509338 207.516159,603.410461 
	C207.358704,603.769653 206.788361,603.947876 206.094589,604.420776 
	C203.809341,600.132690 203.176697,595.510803 202.197250,591.067444 
	C201.176559,586.436951 198.661758,584.020142 194.103622,582.746460 
	C189.475388,581.453064 184.449539,581.093262 179.461273,578.172424 
	C184.309433,575.315674 188.982727,574.851135 193.378555,573.830078 
	C198.620239,572.612488 201.286697,569.746765 202.361450,564.544678 
	C203.243713,560.274231 203.632889,555.761169 206.126755,551.468445 
	C208.959839,554.308777 209.169083,557.733459 209.537338,560.848389 
	C210.508713,569.065002 214.700897,573.649231 223.005646,574.926392 
	C226.280807,575.430176 229.845947,575.885132 233.065536,578.198303 
	C230.188126,580.919800 226.736298,581.069824 223.637238,581.469482 
	C214.940872,582.590942 210.209320,587.167786 209.552109,595.960876 
	C209.454453,597.267456 208.926788,598.541809 208.500183,600.203613 
z"/>
<path fill="#000000" opacity="1.000000" stroke="none" 
	d="
M151.002457,474.860596 
	C153.721878,475.915955 156.632645,475.538635 158.934784,478.053925 
	C154.465042,480.769135 149.747864,481.105225 145.369568,482.049591 
	C139.628540,483.287872 136.913452,486.447662 135.806137,491.998077 
	C135.025894,495.909058 134.592209,500.060211 132.326126,504.138763 
	C129.493332,501.353088 129.312073,498.161682 129.005890,495.423615 
	C128.031219,486.707397 123.610458,482.057709 114.814453,481.031189 
	C111.698601,480.667542 108.309944,480.123230 105.576286,478.182831 
	C105.909821,476.148224 107.430534,476.176971 108.624672,475.833954 
	C109.901657,475.467133 111.207710,475.079346 112.521759,474.983063 
	C122.866081,474.224976 128.394028,468.837189 129.253006,458.380005 
	C129.437469,456.134552 129.236481,453.310181 131.826111,451.444580 
	C133.989059,453.457123 134.293427,456.235718 134.513840,458.704193 
	C135.404282,468.676605 140.658173,474.007782 151.002457,474.860596 
z"/>
<path fill="#000000" opacity="1.000000" stroke="none" 
	d="
M863.648865,143.915771 
	C864.999817,147.984406 866.423096,151.768066 867.055847,155.679611 
	C867.895691,160.870575 870.761353,163.485199 875.699463,164.630646 
	C880.299438,165.697662 884.800476,167.190643 890.139221,168.724228 
	C886.295471,172.057739 882.286987,172.141495 878.786621,172.736618 
	C871.352417,174.000519 867.315125,177.777451 866.269958,185.285675 
	C865.831909,188.433105 865.466919,191.825546 863.195618,194.874680 
	C860.651123,192.845154 860.604065,190.024475 860.286194,187.576065 
	C859.145386,178.787949 855.095642,173.223541 845.626343,172.320862 
	C842.823425,172.053650 839.651306,171.747452 836.984192,169.501938 
	C839.508484,166.544632 843.048828,166.415924 846.067810,165.952103 
	C854.703735,164.625320 859.232483,160.110031 860.061279,151.285614 
	C860.301086,148.732513 859.888977,145.151031 863.648865,143.915771 
z"/>
<path fill="#000000" opacity="1.000000" stroke="none" 
	d="
M205.661804,349.559692 
	C200.904312,350.612274 199.322693,353.863647 198.184631,357.776703 
	C197.014984,361.798279 197.080826,366.260681 194.214478,370.263672 
	C191.068024,366.618103 190.863052,362.307587 190.087433,358.441956 
	C189.009323,353.068573 186.038727,350.507660 180.958084,349.303833 
	C176.696091,348.293976 172.149948,347.937683 167.954865,345.160675 
	C169.971069,342.562195 172.787384,342.247589 175.187683,342.009308 
	C184.791946,341.055969 190.368561,336.427338 191.187759,326.432861 
	C191.379578,324.092651 191.610809,321.418182 193.678802,319.283020 
	C196.463699,321.023621 196.576645,324.147339 196.791809,326.642548 
	C197.605927,336.083344 202.610962,340.833282 211.844193,342.033234 
	C214.405273,342.366089 217.465652,342.448669 219.951889,345.193176 
	C215.342590,347.726044 210.512451,348.065125 205.661804,349.559692 
z"/>
<path fill="#000000" opacity="1.000000" stroke="none" 
	d="
M178.353302,530.591125 
	C161.165100,535.085754 163.865814,532.822388 159.517441,549.187500 
	C159.105469,550.737915 159.237808,552.561951 157.149109,553.504944 
	C154.622055,550.594910 154.697510,546.754150 153.929840,543.348572 
	C152.550049,537.227295 149.675919,533.323792 143.064667,532.174255 
	C139.266617,531.513855 135.236816,530.933838 131.510483,528.756714 
	C132.924652,526.038208 135.558533,526.124756 137.570709,525.947510 
	C148.216629,525.009644 154.136765,519.680908 154.926453,508.771057 
	C155.067307,506.825256 155.147781,504.423798 157.301346,502.686066 
	C160.005478,505.197174 160.117630,508.726685 160.494156,511.737274 
	C161.523651,519.968811 166.111786,523.901123 174.008087,525.127930 
	C177.148102,525.615845 180.552475,525.955750 183.350937,527.933960 
	C182.521759,530.692749 180.313675,529.960327 178.353302,530.591125 
z"/>
<path fill="#000000" opacity="1.000000" stroke="none" 
	d="
M788.572449,424.866486 
	C777.530090,425.114197 777.064087,434.429382 774.249817,442.275635 
	C770.067810,437.629517 771.757996,431.573761 767.976196,428.462677 
	C764.287415,425.428162 758.932922,425.578796 754.353271,423.085754 
	C756.464539,419.814240 759.807617,419.951691 762.411987,419.422119 
	C767.427185,418.402344 769.757935,415.560760 770.708130,410.801086 
	C771.205933,408.307861 771.347290,405.526947 773.557739,403.208008 
	C777.187622,407.305603 776.037109,413.282654 779.668274,416.768188 
	C783.172241,420.131714 788.874207,419.187256 792.625305,422.175110 
	C792.081421,424.541595 790.201050,424.131104 788.572449,424.866486 
z"/>
<path fill="#000000" opacity="1.000000" stroke="none" 
	d="
M809.302124,383.729553 
	C806.973755,382.940125 804.630676,383.102417 802.998230,380.715973 
	C807.054504,377.545929 812.923584,378.641388 816.456604,375.184967 
	C820.051697,371.667786 818.930420,365.747192 822.295288,361.378723 
	C825.774658,365.643005 824.326172,371.648468 828.040039,375.078156 
	C831.686096,378.445312 837.514709,377.453613 841.912781,380.907288 
	C837.437805,384.241364 831.643738,383.210907 827.977234,386.566040 
	C824.285583,389.944153 825.569397,395.748383 822.557190,399.843475 
	C819.655884,398.759521 819.834412,396.118835 819.498779,394.051910 
	C818.562256,388.284821 815.582336,384.714569 809.302124,383.729553 
z"/>
<path fill="#000000" opacity="1.000000" stroke="none" 
	d="
M866.566833,312.339722 
	C863.066162,310.811340 859.382812,310.858063 856.232910,308.721924 
	C857.718445,305.826416 860.477173,305.959961 862.695374,305.521729 
	C868.227051,304.428772 871.548401,301.588226 872.300964,295.759003 
	C872.584290,293.564545 872.843628,291.102936 874.700806,289.385101 
	C876.598633,289.305847 877.023010,290.821747 877.114929,292.009094 
	C877.801819,300.880005 882.834106,305.285553 891.356018,306.328491 
	C892.143066,306.424866 892.900452,306.910919 893.622925,307.305237 
	C893.863831,307.436707 893.952515,307.847107 894.399963,308.646759 
	C890.441833,311.439697 884.998291,310.723602 881.283875,313.621765 
	C877.234802,316.780914 878.582153,322.721771 875.359192,326.739960 
	C872.518005,324.909119 872.858154,321.777130 872.031494,319.273041 
	C871.071533,316.365601 870.327515,313.470917 866.566833,312.339722 
z"/>
<path fill="#000000" opacity="1.000000" stroke="none" 
	d="
M790.990540,154.529785 
	C790.170959,145.743652 785.897705,140.798233 777.226135,139.971725 
	C775.997620,139.854630 774.563904,139.532425 773.774231,137.791779 
	C774.913208,135.674789 777.238953,135.706375 779.216492,135.425507 
	C785.384949,134.549377 789.052856,131.424667 789.925598,125.006271 
	C790.215454,122.874603 790.463074,120.353851 793.775330,118.118240 
	C794.321045,129.963150 800.658997,136.144623 812.256042,136.506866 
	C810.625122,140.255173 808.006165,140.214371 805.885010,140.514313 
	C799.598755,141.403214 796.053833,144.741669 795.242126,151.072311 
	C795.054504,152.535568 794.653015,154.072495 793.937622,155.343460 
	C792.847900,157.279556 791.866455,156.247910 790.990540,154.529785 
z"/>
<path fill="#000000" opacity="1.000000" stroke="none" 
	d="
M893.084534,249.823074 
	C889.418701,248.452530 885.679749,248.364029 882.037903,246.024628 
	C886.827026,242.550644 893.033813,243.895874 896.482910,239.994293 
	C899.707214,236.347092 898.665771,230.567902 901.615967,225.955811 
	C904.048706,228.525665 904.429504,231.246307 904.765686,233.713181 
	C905.537415,239.376480 908.697815,242.038956 914.138123,242.984116 
	C916.390442,243.375397 919.174133,243.301437 921.374390,246.872543 
	C910.164001,247.655258 903.401306,253.177124 903.065002,265.309387 
	C898.952087,262.542389 899.619080,259.168121 898.688660,256.561096 
	C897.666138,253.695969 897.001831,250.739288 893.084534,249.823074 
z"/>
<path fill="#000000" opacity="1.000000" stroke="none" 
	d="
M250.002197,289.559326 
	C248.281525,288.885315 247.091370,288.264465 248.739151,286.705811 
	C248.969009,286.488403 249.322739,286.289185 249.626053,286.278503 
	C260.097015,285.909729 263.896179,278.959747 265.730133,270.032410 
	C265.780396,269.787781 266.211304,269.621399 266.755157,269.186005 
	C269.911438,273.021667 268.707031,278.767944 272.077789,282.199127 
	C275.545074,285.728546 281.248413,284.643463 285.829437,287.709930 
	C281.792603,291.365448 276.196869,290.233795 272.577606,293.224762 
	C268.644714,296.474884 270.067230,302.326324 265.917023,307.661499 
	C264.352844,297.551025 260.755249,290.172180 250.002197,289.559326 
z"/>
<path fill="#000000" opacity="1.000000" stroke="none" 
	d="
M153.137833,388.336365 
	C153.908112,386.325287 153.680237,384.294952 155.738602,382.768890 
	C159.167007,386.378082 158.012390,392.104797 161.257111,395.499359 
	C164.634415,399.032623 170.381119,397.939789 174.540710,401.256805 
	C170.394501,404.634277 164.751831,403.636353 161.217484,406.900238 
	C157.769440,410.084473 159.007080,415.733337 154.531845,420.989899 
	C154.115005,408.558411 147.714111,403.037628 136.889557,401.571320 
	C142.893066,397.262634 152.583786,398.659760 153.137833,388.336365 
z"/>
<path fill="#000000" opacity="1.000000" stroke="none" 
	d="
M584.897461,343.663086 
	C577.935303,357.242188 565.859070,360.582184 552.212402,361.587067 
	C551.945251,360.564545 551.568115,359.794220 551.568787,359.024261 
	C551.582092,344.216064 551.738281,329.407074 551.620667,314.600250 
	C551.590271,310.779663 553.181396,309.170166 556.733765,308.713989 
	C559.859070,308.312622 562.947388,307.629272 566.058777,307.111145 
	C578.029602,305.117767 588.138184,313.678040 588.480408,325.871002 
	C588.652161,331.988647 587.601013,337.779663 584.897461,343.663086 
z"/>
<path fill="#000000" opacity="1.000000" stroke="none" 
	d="
M404.770508,366.000183 
	C404.786591,360.339478 404.852386,355.178131 404.796082,350.018066 
	C404.764099,347.087311 405.900543,345.328247 408.918793,344.767365 
	C411.858154,344.221130 414.799835,343.582611 417.655151,342.706512 
	C432.498840,338.151703 443.345245,354.267273 441.742554,365.956665 
	C439.471191,382.522644 431.834412,391.344788 414.331482,395.999054 
	C403.459778,398.890015 404.716064,398.719910 404.766113,388.974823 
	C404.804596,381.483398 404.770752,373.991669 404.770508,366.000183 
z"/>
</svg>
